<?xml version="1.0" standalone="no"?>
<!DOCTYPE svg PUBLIC "-//W3C//DTD SVG 20010904//EN"
 "http://www.w3.org/TR/2001/REC-SVG-20010904/DTD/svg10.dtd">
<svg version="1.0" xmlns="http://www.w3.org/2000/svg"
 width="195.000000pt" height="195.000000pt" viewBox="0 0 195.000000 195.000000"
 preserveAspectRatio="xMidYMid meet">

<g transform="translate(0.000000,195.000000) scale(0.100000,-0.100000)"
fill="#000000" stroke="none">
<path d="M519 1680 c-180 -52 -330 -193 -392 -368 -30 -85 -29 -260 2 -362 67
-218 218 -376 406 -425 75 -19 211 -19 293 0 133 32 268 124 347 239 21 31 36
58 34 60 -2 2 -40 22 -83 44 l-80 40 -26 -37 c-42 -56 -107 -111 -169 -139
-49 -23 -70 -26 -161 -26 -95 -1 -110 2 -161 27 -73 35 -153 120 -189 200 -78
174 -57 344 57 460 71 72 158 110 264 115 62 3 102 0 144 -12 31 -10 58 -16
59 -14 6 8 76 158 76 162 0 3 -36 17 -81 31 -101 32 -239 34 -340 5z"/>
<path d="M1075 1390 c-154 -46 -276 -138 -342 -256 l-22 -40 84 -42 84 -41 21
34 c31 50 106 114 170 144 48 23 68 26 160 26 92 0 112 -3 160 -26 107 -50
188 -158 224 -296 20 -77 20 -133 1 -208 -28 -109 -87 -175 -203 -232 -91 -45
-187 -55 -274 -29 -31 9 -61 16 -67 16 -6 0 -29 -36 -51 -80 l-41 -81 36 -14
c219 -92 470 -41 643 131 119 119 172 264 159 438 -20 268 -197 500 -431 562
-73 20 -237 17 -311 -6z"/>
</g>
</svg>
